<svg width="150" height="55" viewBox="0 0 150 55" fill="none" xmlns="http://www.w3.org/2000/svg">
<path d="M0 10C0 4.47716 4.47715 0 10 0H139.932C145.455 0 149.932 4.47715 149.932 10V44.565C149.932 50.0878 145.455 54.565 139.932 54.565H10C4.47716 54.565 0 50.0878 0 44.565V10Z" fill="#13152E"/>
<path d="M34.3666 28.1096C34.3962 25.8042 35.6295 23.6228 37.5859 22.4154C36.3517 20.6458 34.2844 19.5238 32.1336 19.4563C29.8396 19.2145 27.6157 20.8343 26.4467 20.8343C25.2551 20.8343 23.4553 19.4803 21.5172 19.5203C18.9909 19.6022 16.6358 21.0441 15.4068 23.2614C12.7648 27.8535 14.7355 34.6023 17.2663 38.3142C18.5325 40.1318 20.0124 42.1621 21.9487 42.0901C23.8436 42.0112 24.5513 40.8771 26.8385 40.8771C29.1045 40.8771 29.7685 42.0901 31.7441 42.0443C33.7774 42.0112 35.0585 40.2187 36.2803 38.3838C37.19 37.0887 37.8901 35.6573 38.3546 34.1427C35.9651 33.1281 34.3694 30.7141 34.3666 28.1096Z" fill="white"/>
<path d="M30.6349 17.0151C31.7435 15.6791 32.2897 13.9618 32.1574 12.228C30.4637 12.4066 28.8992 13.2193 27.7756 14.5041C26.6769 15.7594 26.1051 17.4464 26.2132 19.1139C27.9075 19.1314 29.5732 18.3408 30.6349 17.0151Z" fill="white"/>
<path d="M101.951 25.7285V28.5221H100.206V30.3541H101.951V36.5789C101.951 38.7045 102.908 39.5547 105.318 39.5547C105.742 39.5547 106.145 39.5041 106.498 39.4434V37.6316C106.195 37.662 106.004 37.6822 105.671 37.6822C104.592 37.6822 104.118 37.1761 104.118 36.0222V30.3541H106.498V28.5221H104.118V25.7285H101.951Z" fill="white"/>
<path d="M112.636 39.7065C115.842 39.7065 117.808 37.5506 117.808 33.9777C117.808 30.4249 115.832 28.2589 112.636 28.2589C109.43 28.2589 107.454 30.4249 107.454 33.9777C107.454 37.5506 109.42 39.7065 112.636 39.7065ZM112.636 37.7733C110.751 37.7733 109.692 36.3866 109.692 33.9777C109.692 31.5889 110.751 30.1922 112.636 30.1922C114.512 30.1922 115.58 31.5889 115.58 33.9777C115.58 36.3765 114.512 37.7733 112.636 37.7733Z" fill="white"/>
<path d="M119.491 39.494H121.658V32.9857C121.658 31.4371 122.818 30.3946 124.461 30.3946C124.844 30.3946 125.49 30.4654 125.671 30.5262V28.3804C125.439 28.3196 125.026 28.2893 124.703 28.2893C123.271 28.2893 122.052 29.0788 121.739 30.1618H121.578V28.4715H119.491V39.494Z" fill="white"/>
<path d="M131.053 30.1112C132.657 30.1112 133.705 31.2347 133.755 32.9655H128.21C128.331 31.2448 129.45 30.1112 131.053 30.1112ZM133.745 36.5182C133.342 37.3786 132.445 37.8543 131.134 37.8543C129.4 37.8543 128.281 36.6295 128.21 34.6963V34.5748H135.964V33.8157C135.964 30.3541 134.118 28.2589 131.064 28.2589C127.968 28.2589 126.002 30.4958 126.002 34.0182C126.002 37.5405 127.928 39.7065 131.074 39.7065C133.584 39.7065 135.338 38.4919 135.832 36.5182H133.745Z" fill="white"/>
<path d="M87.7351 35.4235C87.9023 38.1302 90.149 39.8612 93.493 39.8612C97.067 39.8612 99.3033 38.0463 99.3033 35.1508C99.3033 32.8743 98.0284 31.6154 94.9352 30.8915L93.2736 30.4824C91.309 30.0208 90.5148 29.4018 90.5148 28.3212C90.5148 26.9574 91.7479 26.0657 93.5975 26.0657C95.3532 26.0657 96.5654 26.9365 96.7848 28.3317H99.0629C98.9271 25.7825 96.6908 23.9885 93.6289 23.9885C90.3371 23.9885 88.1426 25.7825 88.1426 28.4786C88.1426 30.7027 89.3862 32.0245 92.1136 32.6645L94.0573 33.1365C96.0533 33.6086 96.9311 34.301 96.9311 35.455C96.9311 36.7978 95.5517 37.7735 93.6707 37.7735C91.6538 37.7735 90.2535 36.8608 90.055 35.4235H87.7351Z" fill="white"/>
<path d="M65.2799 28.2893C63.7877 28.2893 62.4971 29.0383 61.8317 30.2934H61.6704V28.4715H59.5833V43.158H61.751V37.8239H61.9224C62.4971 38.9879 63.7373 39.6762 65.3 39.6762C68.0727 39.6762 69.8371 37.4798 69.8371 33.9777C69.8371 30.4756 68.0727 28.2893 65.2799 28.2893ZM64.6648 37.7227C62.85 37.7227 61.7107 36.2854 61.7107 33.9878C61.7107 31.68 62.85 30.2428 64.6749 30.2428C66.5099 30.2428 67.6089 31.6497 67.6089 33.9777C67.6089 36.3158 66.5099 37.7227 64.6648 37.7227Z" fill="white"/>
<path d="M77.4222 28.2893C75.93 28.2893 74.6395 29.0383 73.9741 30.2934H73.8128V28.4715H71.7257V43.158H73.8934V37.8239H74.0648C74.6395 38.9879 75.8796 39.6762 77.4424 39.6762C80.215 39.6762 81.9795 37.4798 81.9795 33.9777C81.9795 30.4756 80.215 28.2893 77.4222 28.2893ZM76.8072 37.7227C74.9924 37.7227 73.8531 36.2854 73.8531 33.9878C73.8531 31.68 74.9924 30.2428 76.8173 30.2428C78.6523 30.2428 79.7513 31.6497 79.7513 33.9777C79.7513 36.3158 78.6523 37.7227 76.8072 37.7227Z" fill="white"/>
<path d="M55.6941 39.494H58.1812L52.7367 24.3557H50.2183L44.7738 39.494H47.1773L48.5672 35.476H54.3147L55.6941 39.494ZM51.3573 27.1043H51.535L53.719 33.5037H49.1628L51.3573 27.1043Z" fill="white"/>
<path d="M44.7137 13.6782V19.662H46.8657C48.6419 19.662 49.6704 18.5631 49.6704 16.6514C49.6704 14.7688 48.6337 13.6782 46.8657 13.6782H44.7137ZM45.6389 14.5241H46.7625C47.9975 14.5241 48.7287 15.312 48.7287 16.6639C48.7287 18.0365 48.0099 18.816 46.7625 18.816H45.6389V14.5241Z" fill="white"/>
<path d="M52.8205 19.7491C54.134 19.7491 54.9395 18.8658 54.9395 17.402C54.9395 15.9465 54.1299 15.0591 52.8205 15.0591C51.5069 15.0591 50.6973 15.9465 50.6973 17.402C50.6973 18.8658 51.5028 19.7491 52.8205 19.7491ZM52.8205 18.957C52.048 18.957 51.6143 18.3889 51.6143 17.402C51.6143 16.4234 52.048 15.8511 52.8205 15.8511C53.5888 15.8511 54.0266 16.4234 54.0266 17.402C54.0266 18.3848 53.5888 18.957 52.8205 18.957Z" fill="white"/>
<path d="M61.7988 15.1462H60.9107L60.1094 18.5921H60.0392L59.1139 15.1462H58.263L57.3377 18.5921H57.2716L56.4662 15.1462H55.5657L56.8049 19.662H57.7178L58.643 16.3363H58.7132L59.6426 19.662H60.5638L61.7988 15.1462Z" fill="white"/>
<path d="M62.8216 19.662H63.7097V17.0205C63.7097 16.3155 64.1269 15.876 64.7836 15.876C65.4404 15.876 65.7543 16.2368 65.7543 16.9624V19.662H66.6424V16.7385C66.6424 15.6645 66.0889 15.0591 65.0852 15.0591C64.4077 15.0591 63.9616 15.3618 63.7427 15.8636H63.6766V15.1462H62.8216V19.662Z" fill="white"/>
<path d="M68.041 19.662H68.9291V13.3838H68.041V19.662Z" fill="white"/>
<path d="M72.2692 19.7491C73.5827 19.7491 74.3882 18.8658 74.3882 17.402C74.3882 15.9465 73.5786 15.0591 72.2692 15.0591C70.9556 15.0591 70.146 15.9465 70.146 17.402C70.146 18.8658 70.9515 19.7491 72.2692 19.7491ZM72.2692 18.957C71.4967 18.957 71.063 18.3889 71.063 17.402C71.063 16.4234 71.4967 15.8511 72.2692 15.8511C73.0375 15.8511 73.4753 16.4234 73.4753 17.402C73.4753 18.3848 73.0375 18.957 72.2692 18.957Z" fill="white"/>
<path d="M77.0343 18.9861C76.551 18.9861 76.1999 18.7497 76.1999 18.3433C76.1999 17.9452 76.4808 17.7337 77.1004 17.6923L78.1991 17.6218V17.9991C78.1991 18.5589 77.7034 18.9861 77.0343 18.9861ZM76.8071 19.7366C77.3978 19.7366 77.8893 19.4795 78.1578 19.0275H78.228V19.662H79.0831V16.5768C79.0831 15.623 78.4469 15.0591 77.3193 15.0591C76.299 15.0591 75.572 15.5567 75.4812 16.3321H76.3403C76.4395 16.0128 76.7823 15.8304 77.278 15.8304C77.8852 15.8304 78.1991 16.0999 78.1991 16.5768V16.9666L76.9806 17.0371C75.9107 17.1034 75.3077 17.572 75.3077 18.3848C75.3077 19.21 75.9397 19.7366 76.8071 19.7366Z" fill="white"/>
<path d="M82.0968 19.7366C82.7164 19.7366 83.241 19.4422 83.5095 18.9487H83.5797V19.662H84.4306V13.3838H83.5425V15.8636H83.4764C83.2327 15.3659 82.7122 15.0715 82.0968 15.0715C80.9609 15.0715 80.2297 15.9755 80.2297 17.402C80.2297 18.8326 80.9526 19.7366 82.0968 19.7366ZM82.3488 15.8718C83.0923 15.8718 83.559 16.4648 83.559 17.4061C83.559 18.3516 83.0964 18.9363 82.3488 18.9363C81.597 18.9363 81.1467 18.3599 81.1467 17.402C81.1467 16.4524 81.6011 15.8718 82.3488 15.8718Z" fill="white"/>
<path d="M90.1895 19.7491C91.5031 19.7491 92.3085 18.8658 92.3085 17.402C92.3085 15.9465 91.4989 15.0591 90.1895 15.0591C88.876 15.0591 88.0664 15.9465 88.0664 17.402C88.0664 18.8658 88.8719 19.7491 90.1895 19.7491ZM90.1895 18.957C89.4171 18.957 88.9834 18.3889 88.9834 17.402C88.9834 16.4234 89.4171 15.8511 90.1895 15.8511C90.9578 15.8511 91.3957 16.4234 91.3957 17.402C91.3957 18.3848 90.9578 18.957 90.1895 18.957Z" fill="white"/>
<path d="M93.4841 19.662H94.3722V17.0205C94.3722 16.3155 94.7894 15.876 95.4462 15.876C96.103 15.876 96.4169 16.2368 96.4169 16.9624V19.662H97.305V16.7385C97.305 15.6645 96.7515 15.0591 95.7477 15.0591C95.0703 15.0591 94.6242 15.3618 94.4053 15.8636H94.3392V15.1462H93.4841V19.662Z" fill="white"/>
<path d="M101.395 14.0224V15.1669H100.681V15.9175H101.395V18.4677C101.395 19.3385 101.788 19.6869 102.775 19.6869C102.948 19.6869 103.113 19.6661 103.258 19.6413V18.899C103.134 18.9114 103.056 18.9197 102.919 18.9197C102.477 18.9197 102.283 18.7124 102.283 18.2396V15.9175H103.258V15.1669H102.283V14.0224H101.395Z" fill="white"/>
<path d="M104.45 19.662H105.338V17.0246C105.338 16.3404 105.743 15.8801 106.47 15.8801C107.098 15.8801 107.432 16.2451 107.432 16.9666V19.662H108.321V16.7468C108.321 15.6728 107.73 15.0632 106.772 15.0632C106.094 15.0632 105.619 15.3659 105.4 15.8718H105.33V13.3838H104.45V19.662Z" fill="white"/>
<path d="M111.524 15.8179C112.181 15.8179 112.611 16.2782 112.631 16.9873H110.359C110.409 16.2824 110.868 15.8179 111.524 15.8179ZM112.627 18.4428C112.462 18.7953 112.094 18.9902 111.557 18.9902C110.847 18.9902 110.388 18.4885 110.359 17.6964V17.6467H113.536V17.3357C113.536 15.9175 112.78 15.0591 111.528 15.0591C110.26 15.0591 109.455 15.9755 109.455 17.4186C109.455 18.8617 110.244 19.7491 111.533 19.7491C112.561 19.7491 113.28 19.2515 113.482 18.4428H112.627Z" fill="white"/>
</svg>
