<svg width="633" height="642" viewBox="0 0 633 642" fill="none" xmlns="http://www.w3.org/2000/svg">
<path d="M69.0601 522.99V533.06H0.160034V523.06C1.98003 522.89 3.6001 522.7 5.2301 522.59C17.9901 521.71 24.7601 515.87 27.0901 503.35C27.7962 499.587 28.1543 495.768 28.16 491.94C28.2134 369.107 28.2134 246.283 28.16 123.47V118.84H0V108.99H96L141.84 377.83H143.1C158.367 288.27 173.647 198.627 188.94 108.9H282.26V118.42H253.71V522.6H281.48V533H169.38V523H197.27V130.5L196.48 130.44C193.74 146.093 191 161.76 188.26 177.44C180.987 219.227 173.723 261.027 166.47 302.84C157.643 353.8 148.827 404.767 140.02 455.74C135.81 480 131.5 504.24 127.42 528.52C126.82 532.09 125.77 534.08 121.8 533.43C118.19 532.84 113.8 535.43 112.66 528.51C107.17 495.03 101.1 461.64 95.24 428.21C84.9733 369.543 74.7067 310.893 64.4401 252.26C56.9534 209.327 49.4967 166.387 42.0701 123.44C41.7838 122.494 41.4501 121.563 41.0701 120.65C40.8301 123.4 40.61 124.76 40.61 126.12C40.61 247.94 40.61 369.76 40.61 491.58C40.6441 495.575 41.0255 499.56 41.75 503.49C44.01 516.01 50.3101 521.6 62.9701 522.63C64.8301 522.75 66.6701 522.84 69.0601 522.99Z" fill="white"/>
<path d="M152.22 641.97V625.68H321.96V16.6801H152.37V0H547.78V16.45H377.99V625.37H547.79V641.97H152.22ZM339.57 16.7V625.19H360.35V16.7H339.57Z" fill="white"/>
<path d="M632.8 532.94C624.67 535.28 619.23 532.94 615.05 525.88C612.5 521.57 608.28 518.26 605.22 514.95C597.84 520.36 591.44 526 584.22 530.17C567.28 539.9 548.83 539.64 530.33 536.17C497.27 530 474.85 509.76 459.02 481.17C445.02 455.94 437.85 428.53 433.31 400.31C428.03 367.47 426.74 334.37 427.5 301.21C428.41 261.49 432.25 222.12 445.2 184.21C451.37 166.15 459.26 148.97 472.42 134.74C491.92 113.66 516.83 105.36 544.77 103.74C566.62 102.46 583.99 110.65 598.42 128.21C602.64 123.73 607.56 119.99 610.42 115.05C613.63 109.52 617.71 108.55 623.14 109.15C624.29 109.28 625.45 109.33 626.95 109.44V212.01C623.52 212.01 619.95 212.46 616.72 211.8C615.33 211.52 613.97 209.04 613.36 207.3C607.3 189.89 602.23 172.08 595.14 155.11C590.686 144.555 584.632 134.75 577.19 126.04C560.07 106.04 533.58 111.48 519.66 128.12C507.51 142.63 503.09 159.83 503.06 178.24C502.927 274.06 502.927 369.88 503.06 465.7C503.06 482.76 507.26 498.7 518.45 512.13C537.81 535.29 570.72 534.46 589.19 510.52C597.98 499.13 603.19 485.98 607.09 472.36C612.33 453.83 616.73 435.06 621.63 415.85H632.85L632.8 532.94Z" fill="white"/>
</svg>
