<svg width="147" height="55" viewBox="0 0 147 55" fill="none" xmlns="http://www.w3.org/2000/svg">
<rect x="0.214233" width="146.399" height="54.565" rx="10" fill="#13152E"/>
<g filter="url(#filter0_ii_326_1225)">
<path d="M14.8259 13.8172C14.5096 14.1533 14.3226 14.675 14.3226 15.3505V39.4857C14.3226 40.1623 14.5096 40.6828 14.8259 41.0189L14.9064 41.0975L28.3739 27.5774V27.4181V27.2588L14.9064 13.7375L14.8259 13.8172Z" fill="url(#paint0_linear_326_1225)"/>
<path d="M32.8621 32.0854L28.3737 27.5772V27.4179V27.2585L32.8632 22.7515L32.9643 22.8093L38.2833 25.8431C39.8019 26.7096 39.8019 28.1272 38.2833 28.9948L32.9643 32.0286L32.8621 32.0854Z" fill="url(#paint1_linear_326_1225)"/>
<g filter="url(#filter1_i_326_1225)">
<path d="M32.9646 32.0276L28.3728 27.418L14.8259 41.0188C15.326 41.5514 16.1532 41.6169 17.0848 41.0865L32.9646 32.0276Z" fill="url(#paint2_linear_326_1225)"/>
</g>
<path d="M32.9646 22.8083L17.0848 13.7505C16.1532 13.2191 15.326 13.2857 14.8259 13.8182L28.3739 27.4191L32.9646 22.8083Z" fill="url(#paint3_linear_326_1225)"/>
</g>
<path d="M73.5797 28.7385C71.1649 28.7385 69.1968 30.5743 69.1968 33.1028C69.1968 35.6159 71.1649 37.4671 73.5797 37.4671C75.9955 37.4671 77.9637 35.6159 77.9637 33.1028C77.9626 30.5743 75.9945 28.7385 73.5797 28.7385ZM73.5797 35.7493C72.2563 35.7493 71.1156 34.6585 71.1156 33.1038C71.1156 31.5327 72.2573 30.4583 73.5797 30.4583C74.9031 30.4583 76.0438 31.5327 76.0438 33.1038C76.0438 34.6574 74.9031 35.7493 73.5797 35.7493ZM64.0171 28.7385C61.6023 28.7385 59.6342 30.5743 59.6342 33.1028C59.6342 35.6159 61.6023 37.4671 64.0171 37.4671C66.4329 37.4671 68.4011 35.6159 68.4011 33.1028C68.4011 30.5743 66.4329 28.7385 64.0171 28.7385ZM64.0171 35.7493C62.6937 35.7493 61.5531 34.6585 61.5531 33.1038C61.5531 31.5327 62.6947 30.4583 64.0171 30.4583C65.3405 30.4583 66.4812 31.5327 66.4812 33.1038C66.4822 34.6574 65.3405 35.7493 64.0171 35.7493ZM52.6434 30.0787V31.9299H57.0767C56.9442 32.9714 56.5972 33.7318 56.0675 34.2603C55.4227 34.9047 54.4135 35.6159 52.6434 35.6159C49.9145 35.6159 47.781 33.4168 47.781 30.6892C47.781 27.9617 49.9145 25.7626 52.6434 25.7626C54.1157 25.7626 55.1907 26.3413 55.9843 27.0853L57.2913 25.779C56.1824 24.721 54.7112 23.9114 52.6434 23.9114C48.9053 23.9114 45.7626 26.9529 45.7626 30.6892C45.7626 34.4255 48.9053 37.4671 52.6434 37.4671C54.6609 37.4671 56.1835 36.8052 57.3734 35.5656C58.5972 34.3424 58.9781 32.6225 58.9781 31.2341C58.9781 30.8052 58.9453 30.4081 58.8785 30.0776L52.6434 30.0787ZM99.1607 31.5163C98.7972 30.5415 97.6884 28.7385 95.4225 28.7385C93.173 28.7385 91.3034 30.5076 91.3034 33.1028C91.3034 35.5492 93.1566 37.4671 95.6371 37.4671C97.6381 37.4671 98.7962 36.2439 99.2767 35.5328L97.788 34.5404C97.2921 35.268 96.6135 35.7472 95.6371 35.7472C94.6617 35.7472 93.9667 35.3008 93.5201 34.4245L99.3588 32.0109L99.1607 31.5163ZM93.2059 32.9714C93.1566 31.2844 94.5129 30.4255 95.4892 30.4255C96.25 30.4255 96.8948 30.8062 97.1104 31.3511L93.2059 32.9714ZM88.4595 37.2034H90.3774V24.3752H88.4595V37.2034ZM85.3158 29.7144H85.2501C84.8199 29.2013 83.9924 28.7385 82.9513 28.7385C80.7675 28.7385 78.7665 30.6564 78.7665 33.1202C78.7665 35.5666 80.7675 37.4681 82.9513 37.4681C83.9934 37.4681 84.8199 37.0053 85.2501 36.4768H85.3158V37.1048C85.3158 38.7744 84.4226 39.6672 82.9842 39.6672C81.8096 39.6672 81.0817 38.8247 80.784 38.1136L79.1135 38.8083C79.593 39.9648 80.8661 41.387 82.9842 41.387C85.2336 41.387 87.1361 40.0643 87.1361 36.8401V29.0043H85.3168L85.3158 29.7144ZM83.1166 35.7493C81.7932 35.7493 80.6854 34.641 80.6854 33.1202C80.6854 31.582 81.7932 30.4583 83.1166 30.4583C84.4226 30.4583 85.4482 31.582 85.4482 33.1202C85.4482 34.641 84.4226 35.7493 83.1166 35.7493ZM108.148 24.3752H103.558V37.2034H105.473V32.3434H108.147C110.27 32.3434 112.359 30.8072 112.359 28.3598C112.359 25.9124 110.272 24.3752 108.148 24.3752ZM108.198 30.5579H105.473V26.1607H108.198C109.63 26.1607 110.443 27.346 110.443 28.3598C110.443 29.3532 109.63 30.5579 108.198 30.5579ZM120.037 28.7159C118.65 28.7159 117.214 29.3265 116.62 30.68L118.32 31.3891C118.683 30.68 119.361 30.4481 120.07 30.4481C121.061 30.4481 122.068 31.0422 122.085 32.0982V32.2305C121.738 32.0325 120.994 31.7359 120.087 31.7359C118.254 31.7359 116.388 32.7426 116.388 34.6236C116.388 36.3403 117.891 37.4455 119.574 37.4455C120.862 37.4455 121.572 36.8678 122.018 36.1905H122.084V37.1808H123.934V32.2623C123.935 29.9863 122.232 28.7159 120.037 28.7159ZM119.805 35.7462C119.179 35.7462 118.303 35.4322 118.303 34.6564C118.303 33.6661 119.394 33.2865 120.335 33.2865C121.176 33.2865 121.573 33.4681 122.085 33.7154C121.936 34.9047 120.912 35.7462 119.805 35.7462ZM130.671 28.996L128.475 34.5579H128.409L126.13 28.996H124.066L127.484 36.7693L125.535 41.0936H127.533L132.801 28.996H130.671ZM113.416 37.2034H115.331V24.3752H113.416V37.2034Z" fill="white"/>
<path d="M52.4044 16.7873C52.4044 17.6317 52.15 18.3037 51.6402 18.8055C51.0617 19.402 50.3067 19.7002 49.3794 19.7002C48.4911 19.7002 47.7351 19.398 47.1145 18.7934C46.4929 18.1879 46.1821 17.4382 46.1821 16.5435C46.1821 15.6478 46.4929 14.8981 47.1145 14.2936C47.7351 13.688 48.4911 13.3858 49.3794 13.3858C49.8205 13.3858 50.2421 13.4704 50.6421 13.6387C51.0432 13.8079 51.3643 14.0326 51.6043 14.3137L51.0637 14.8457C50.6565 14.3671 50.0954 14.1283 49.3784 14.1283C48.7301 14.1283 48.17 14.352 47.6971 14.7994C47.2242 15.2468 46.9883 15.8281 46.9883 16.5425C46.9883 17.2569 47.2242 17.8382 47.6971 18.2856C48.17 18.733 48.7301 18.9567 49.3784 18.9567C50.0656 18.9567 50.639 18.732 51.0976 18.2816C51.395 17.9884 51.5674 17.5803 51.6135 17.0574H49.3784V16.3309H52.3603C52.3911 16.4891 52.4044 16.6412 52.4044 16.7873Z" fill="white"/>
<path d="M57.1333 14.2624H54.3309V16.1788H56.8584V16.9053H54.3309V18.8217H57.1333V19.5653H53.54V13.5198H57.1333V14.2624Z" fill="white"/>
<path d="M60.4679 19.5653H59.6771V14.2624H57.9579V13.5198H62.1871V14.2624H60.4679V19.5653Z" fill="white"/>
<path d="M65.247 19.5653V13.5198H66.0378V19.5653H65.247Z" fill="white"/>
<path d="M69.5451 19.5653H68.7542V14.2624H67.035V13.5198H71.2643V14.2624H69.5451V19.5653Z" fill="white"/>
<path d="M79.2702 18.7844C78.665 19.395 77.9131 19.7003 77.0135 19.7003C76.1139 19.7003 75.362 19.395 74.7578 18.7844C74.1526 18.1738 73.8511 17.4262 73.8511 16.5425C73.8511 15.6589 74.1526 14.9113 74.7578 14.3007C75.362 13.6901 76.1139 13.3838 77.0135 13.3838C77.908 13.3838 78.6588 13.6911 79.2661 14.3047C79.8734 14.9183 80.177 15.6639 80.177 16.5425C80.177 17.4262 79.8744 18.1738 79.2702 18.7844ZM75.3415 18.2776C75.7969 18.731 76.3539 18.9567 77.0135 18.9567C77.6731 18.9567 78.2311 18.73 78.6855 18.2776C79.141 17.8242 79.3697 17.2458 79.3697 16.5425C79.3697 15.8393 79.141 15.2609 78.6855 14.8075C78.2311 14.3541 77.6731 14.1284 77.0135 14.1284C76.3539 14.1284 75.7969 14.3551 75.3415 14.8075C74.8871 15.2609 74.6583 15.8393 74.6583 16.5425C74.6583 17.2458 74.8871 17.8242 75.3415 18.2776Z" fill="white"/>
<path d="M81.2869 19.5653V13.5198H82.2491L85.2402 18.2222H85.2741L85.2402 17.0574V13.5198H86.0311V19.5653H85.2053L82.0757 14.6342H82.0419L82.0757 15.799V19.5653H81.2869Z" fill="white"/>
<path d="M52.4044 16.7873C52.4044 17.6317 52.15 18.3037 51.6402 18.8055C51.0617 19.402 50.3067 19.7002 49.3794 19.7002C48.4911 19.7002 47.7351 19.398 47.1145 18.7934C46.4929 18.1879 46.1821 17.4382 46.1821 16.5435C46.1821 15.6478 46.4929 14.8981 47.1145 14.2936C47.7351 13.688 48.4911 13.3858 49.3794 13.3858C49.8205 13.3858 50.2421 13.4704 50.6421 13.6387C51.0432 13.8079 51.3643 14.0326 51.6043 14.3137L51.0637 14.8457C50.6565 14.3671 50.0954 14.1283 49.3784 14.1283C48.7301 14.1283 48.17 14.352 47.6971 14.7994C47.2242 15.2468 46.9883 15.8281 46.9883 16.5425C46.9883 17.2569 47.2242 17.8382 47.6971 18.2856C48.17 18.733 48.7301 18.9567 49.3784 18.9567C50.0656 18.9567 50.639 18.732 51.0976 18.2816C51.395 17.9884 51.5674 17.5803 51.6135 17.0574H49.3784V16.3309H52.3603C52.3911 16.4891 52.4044 16.6412 52.4044 16.7873Z" stroke="white" stroke-width="0.204511" stroke-miterlimit="10"/>
<path d="M57.1333 14.2624H54.3309V16.1788H56.8584V16.9053H54.3309V18.8217H57.1333V19.5653H53.54V13.5198H57.1333V14.2624Z" stroke="white" stroke-width="0.204511" stroke-miterlimit="10"/>
<path d="M60.4679 19.5653H59.6771V14.2624H57.9579V13.5198H62.1871V14.2624H60.4679V19.5653Z" stroke="white" stroke-width="0.204511" stroke-miterlimit="10"/>
<path d="M65.247 19.5653V13.5198H66.0378V19.5653H65.247Z" stroke="white" stroke-width="0.204511" stroke-miterlimit="10"/>
<path d="M69.5451 19.5653H68.7542V14.2624H67.035V13.5198H71.2643V14.2624H69.5451V19.5653Z" stroke="white" stroke-width="0.204511" stroke-miterlimit="10"/>
<path d="M79.2702 18.7844C78.665 19.395 77.9131 19.7003 77.0135 19.7003C76.1139 19.7003 75.362 19.395 74.7578 18.7844C74.1526 18.1738 73.8511 17.4262 73.8511 16.5425C73.8511 15.6589 74.1526 14.9113 74.7578 14.3007C75.362 13.6901 76.1139 13.3838 77.0135 13.3838C77.908 13.3838 78.6588 13.6911 79.2661 14.3047C79.8734 14.9183 80.177 15.6639 80.177 16.5425C80.177 17.4262 79.8744 18.1738 79.2702 18.7844ZM75.3415 18.2776C75.7969 18.731 76.3539 18.9567 77.0135 18.9567C77.6731 18.9567 78.2311 18.73 78.6855 18.2776C79.141 17.8242 79.3697 17.2458 79.3697 16.5425C79.3697 15.8393 79.141 15.2609 78.6855 14.8075C78.2311 14.3541 77.6731 14.1284 77.0135 14.1284C76.3539 14.1284 75.7969 14.3551 75.3415 14.8075C74.8871 15.2609 74.6583 15.8393 74.6583 16.5425C74.6583 17.2458 74.8871 17.8242 75.3415 18.2776Z" stroke="white" stroke-width="0.204511" stroke-miterlimit="10"/>
<path d="M81.2869 19.5653V13.5198H82.2491L85.2402 18.2222H85.2741L85.2402 17.0574V13.5198H86.0311V19.5653H85.2053L82.0757 14.6342H82.0419L82.0757 15.799V19.5653H81.2869Z" stroke="white" stroke-width="0.204511" stroke-miterlimit="10"/>
<defs>
<filter id="filter0_ii_326_1225" x="14.3226" y="13.3838" width="25.0996" height="28.0691" filterUnits="userSpaceOnUse" color-interpolation-filters="sRGB">
<feFlood flood-opacity="0" result="BackgroundImageFix"/>
<feBlend mode="normal" in="SourceGraphic" in2="BackgroundImageFix" result="shape"/>
<feColorMatrix in="SourceAlpha" type="matrix" values="0 0 0 0 0 0 0 0 0 0 0 0 0 0 0 0 0 0 127 0" result="hardAlpha"/>
<feOffset dy="-0.795"/>
<feComposite in2="hardAlpha" operator="arithmetic" k2="-1" k3="1"/>
<feColorMatrix type="matrix" values="0 0 0 0 0 0 0 0 0 0 0 0 0 0 0 0 0 0 0.12 0"/>
<feBlend mode="normal" in2="shape" result="effect1_innerShadow_326_1225"/>
<feColorMatrix in="SourceAlpha" type="matrix" values="0 0 0 0 0 0 0 0 0 0 0 0 0 0 0 0 0 0 127 0" result="hardAlpha"/>
<feOffset dy="0.795"/>
<feComposite in2="hardAlpha" operator="arithmetic" k2="-1" k3="1"/>
<feColorMatrix type="matrix" values="0 0 0 0 1 0 0 0 0 1 0 0 0 0 1 0 0 0 0.25 0"/>
<feBlend mode="normal" in2="effect1_innerShadow_326_1225" result="effect2_innerShadow_326_1225"/>
</filter>
<filter id="filter1_i_326_1225" x="14.8259" y="27.418" width="18.1386" height="14.0349" filterUnits="userSpaceOnUse" color-interpolation-filters="sRGB">
<feFlood flood-opacity="0" result="BackgroundImageFix"/>
<feBlend mode="normal" in="SourceGraphic" in2="BackgroundImageFix" result="shape"/>
<feColorMatrix in="SourceAlpha" type="matrix" values="0 0 0 0 0 0 0 0 0 0 0 0 0 0 0 0 0 0 127 0" result="hardAlpha"/>
<feOffset dy="-0.795"/>
<feComposite in2="hardAlpha" operator="arithmetic" k2="-1" k3="1"/>
<feColorMatrix type="matrix" values="0 0 0 0 0 0 0 0 0 0 0 0 0 0 0 0 0 0 0.08 0"/>
<feBlend mode="normal" in2="shape" result="effect1_innerShadow_326_1225"/>
</filter>
<linearGradient id="paint0_linear_326_1225" x1="27.1801" y1="15.0951" x2="8.86607" y2="33.338" gradientUnits="userSpaceOnUse">
<stop stop-color="#00A0FF"/>
<stop offset="0.0066" stop-color="#00A1FF"/>
<stop offset="0.2601" stop-color="#00BEFF"/>
<stop offset="0.5122" stop-color="#00D2FF"/>
<stop offset="0.7604" stop-color="#00DFFF"/>
<stop offset="1" stop-color="#00E3FF"/>
</linearGradient>
<linearGradient id="paint1_linear_326_1225" x1="40.2601" y1="27.4179" x2="13.9578" y2="27.4179" gradientUnits="userSpaceOnUse">
<stop stop-color="#FFE000"/>
<stop offset="0.4087" stop-color="#FFBD00"/>
<stop offset="0.7754" stop-color="#FFA500"/>
<stop offset="1" stop-color="#FF9C00"/>
</linearGradient>
<linearGradient id="paint2_linear_326_1225" x1="30.471" y1="29.9213" x2="5.63481" y2="54.6609" gradientUnits="userSpaceOnUse">
<stop stop-color="#FF3A44"/>
<stop offset="1" stop-color="#C31162"/>
</linearGradient>
<linearGradient id="paint3_linear_326_1225" x1="11.4141" y1="5.78384" x2="22.5041" y2="16.8308" gradientUnits="userSpaceOnUse">
<stop stop-color="#32A071"/>
<stop offset="0.0685" stop-color="#2DA771"/>
<stop offset="0.4762" stop-color="#15CF74"/>
<stop offset="0.8009" stop-color="#06E775"/>
<stop offset="1" stop-color="#00F076"/>
</linearGradient>
</defs>
</svg>
