<svg width="3125" height="642" viewBox="0 0 3125 642" fill="none" xmlns="http://www.w3.org/2000/svg">
<g clip-path="url(#clip0_29_335)">
<path d="M69.02 522.99V533.06H0.119995V523.06C1.94 522.89 3.56006 522.7 5.19006 522.59C17.9501 521.71 24.72 515.87 27.05 503.35C27.7562 499.587 28.1143 495.768 28.12 491.94C28.1733 369.107 28.1733 246.283 28.12 123.47V118.84H-0.0400391V108.99H95.96L141.8 377.83H143.06C158.327 288.27 173.607 198.627 188.9 108.9H282.22V118.42H253.67V522.6H281.44V533H169.34V523H197.23V130.5L196.44 130.44C193.7 146.093 190.96 161.76 188.22 177.44C180.947 219.227 173.683 261.027 166.43 302.84C157.603 353.8 148.787 404.767 139.98 455.74C135.77 480 131.46 504.24 127.38 528.52C126.78 532.09 125.73 534.08 121.76 533.43C118.15 532.84 113.76 535.43 112.62 528.51C107.13 495.03 101.06 461.64 95.2 428.21C84.9333 369.543 74.6667 310.893 64.4 252.26C56.9134 209.327 49.4567 166.387 42.03 123.44C41.7438 122.494 41.41 121.563 41.03 120.65C40.79 123.4 40.5699 124.76 40.5699 126.12C40.5699 247.94 40.5699 369.76 40.5699 491.58C40.604 495.575 40.9855 499.56 41.71 503.49C43.97 516.01 50.2701 521.6 62.9301 522.63C64.7901 522.75 66.63 522.84 69.02 522.99Z" fill="white"/>
<path d="M2682.98 208.45C2667.52 208.45 2652.42 208.38 2637.31 208.45C2633 208.45 2628.69 209.03 2624.38 209.37C2614.59 210.15 2608.69 215.83 2605.24 224.59C2605.05 225.401 2604.75 226.18 2604.33 226.9C2603.16 228.28 2601.79 229.5 2600.51 230.78C2599.68 229.02 2598.13 227.24 2598.17 225.51C2598.41 221.526 2598.95 217.565 2599.78 213.66C2600.87 207.48 2602.11 201.31 2603.38 194.6C2598.32 195.24 2593.74 195.6 2589.26 196.45C2582.54 197.77 2579.86 200.59 2579.1 207.52C2578.37 213.971 2577.99 220.457 2577.97 226.95C2577.97 276.283 2578.07 325.617 2578.28 374.95C2578.37 379.611 2578.7 384.264 2579.28 388.89C2580.28 397.89 2583.86 401.47 2592.95 402.47C2597.41 402.96 2601.95 402.88 2606.37 403.57C2608.08 403.83 2609.58 405.5 2611.17 406.57C2609.51 407.57 2607.86 409.41 2606.17 409.43C2595.51 409.53 2584.85 409.06 2574.17 409.09C2556.03 409.09 2537.89 409.45 2519.75 409.51C2516.82 409.51 2512.14 410.84 2511.86 406.65C2511.54 401.95 2516.55 404.04 2519.23 403.25C2520.86 402.933 2522.52 402.75 2524.18 402.7C2531.18 401.82 2534.35 399.39 2535.07 392.49C2536.28 381.914 2536.94 371.284 2537.07 360.64C2537.23 312.31 2537.07 263.98 2537 215.64C2537.01 213.633 2536.88 211.629 2536.61 209.64C2535.38 200.64 2531.47 196.82 2522.41 195.64C2519.77 195.31 2517.02 195.64 2514.41 195.08C2513.13 194.79 2512.16 193.08 2511.04 192.08C2512.22 191.2 2513.38 189.58 2514.56 189.56C2525.88 189.41 2537.2 189.56 2548.56 189.56C2564.05 189.49 2579.56 189.24 2595.02 189.19C2598.07 189.337 2601.1 189.637 2604.12 190.09C2605.01 184.81 2608.24 184.82 2613.36 186.45C2619.06 188.281 2625 189.241 2630.99 189.3C2682.13 189.56 2733.27 189.617 2784.42 189.47C2789.25 189.306 2794.04 188.636 2798.73 187.47C2803.07 186.53 2804.59 188.22 2804.52 192.21C2804.35 202.037 2804.17 211.863 2803.99 221.69C2803.99 224.18 2804.25 226.77 2803.69 229.15C2803.31 230.76 2801.69 232.08 2800.69 233.53C2799.69 232.21 2798.69 230.91 2797.76 229.53C2797.53 229.08 2797.43 228.574 2797.47 228.07C2797.47 217.63 2790.82 212.59 2781.93 210.73C2773.13 209.029 2764.2 208.026 2755.24 207.73C2745.11 207.23 2734.94 207.61 2723.96 207.61V212.28C2724.07 264.11 2724.11 315.93 2724.35 367.76C2724.43 375.246 2725.01 382.719 2726.07 390.13C2727.23 398.5 2730.86 401.52 2739.25 402.45C2756.45 404.36 2765 399.62 2772.25 383.24C2784.48 355.57 2796.39 327.76 2808.44 300C2824.25 263.567 2840.06 227.14 2855.89 190.72C2856.22 189.955 2856.59 189.21 2857.01 188.49C2860.84 182.01 2866.08 181.68 2869.4 188.4C2874.99 199.71 2879.87 211.4 2884.86 222.95C2906.65 273.49 2928.16 324.15 2950.3 374.53C2953.9 382.71 2959.94 389.88 2965.3 397.22C2966.73 399.22 2969.5 400.5 2971.92 401.41C2978.83 403.99 2984.83 401.3 2985.92 394.04C2987.58 383.195 2988.49 372.249 2988.65 361.28C2989.07 324.46 2989.06 287.63 2989.07 250.81C2989.07 238.32 2988.78 225.81 2988.39 213.35C2988.01 201.09 2983.39 196.51 2971.06 195.45C2968.74 195.25 2966.33 195.45 2964.12 194.93C2962.8 194.59 2961.77 193.09 2960.61 192.11C2961.8 191.2 2962.97 189.55 2964.19 189.51C2971.67 189.27 2979.19 189.42 2986.65 189.39C3007.8 189.3 3028.95 189.1 3050.11 189.19C3052.9 189.19 3057.84 187.64 3058 191.82C3058.2 196.59 3053.12 194.73 3050.14 195.27C3049.31 195.365 3048.48 195.415 3047.65 195.42C3034.03 196.23 3030.29 199.5 3030.24 213.03C3030.04 264.16 3029.7 315.3 3030.44 366.43C3030.72 385.76 3034.29 389.43 3052.58 391.04C3066.51 392.136 3080.5 392.193 3094.43 391.21C3108.11 390.34 3115.15 382.68 3118.43 368.42C3118.94 366.21 3120.81 364.32 3122.05 362.28C3123.05 364.69 3125.05 367.2 3124.8 369.51C3123.87 379.95 3122.59 390.37 3120.91 400.71C3119.84 407.35 3117.25 409.71 3110.38 409.78C3093.07 409.98 3075.76 409.72 3058.45 409.53C3036.3 409.28 3014.15 408.78 2992.01 408.63C2966.88 408.47 2941.74 408.63 2916.61 408.63C2915.27 408.712 2913.93 408.617 2912.61 408.35C2911.61 408.06 2910.02 407.07 2910.09 406.57C2910.22 405.5 2911.09 403.9 2911.96 403.65C2917.4 402.15 2916.88 398.73 2915.29 394.7C2908.14 376.62 2901.02 358.526 2893.93 340.42C2892.69 337.25 2890.93 335.85 2887.29 335.88C2865.46 336.07 2843.62 335.88 2821.79 336.09C2819.87 336.09 2816.79 337.31 2816.23 338.76C2809.8 354.08 2803.23 369.38 2797.77 385.06C2792.77 399.41 2795.91 403.17 2810.97 403.41C2811.47 403.41 2812.11 403.21 2812.44 403.41C2813.84 404.41 2815.14 405.53 2816.44 406.6C2815.12 407.6 2813.8 409.31 2812.44 409.31C2803.62 409.31 2794.8 408.62 2785.98 408.65C2766.98 408.71 2747.98 409.13 2729.04 409.26C2707.91 409.4 2686.78 409.39 2665.64 409.44C2664.14 409.44 2662.46 409.8 2661.2 409.24C2659.75 408.59 2658.68 407.1 2657.45 405.98C2658.71 405.11 2659.87 403.81 2661.25 403.48C2663.66 402.91 2666.25 403 2668.69 402.72C2676.78 401.81 2680.14 399.11 2680.95 390.99C2682.08 379.58 2682.95 368.1 2683.01 356.64C2683.23 308.14 2683.1 259.64 2683.09 211.15C2683.15 210.12 2683.02 209 2682.98 208.45ZM2854.74 241.65C2844.11 268.14 2833.92 293.55 2823.62 319.2H2884.93C2874.85 293.31 2865.01 268.01 2854.74 241.65Z" fill="white"/>
<path d="M2132.46 401.84C2135.69 400.899 2138.68 399.264 2141.21 397.05C2143.74 394.836 2145.76 392.096 2147.13 389.02C2153 376.55 2158.62 363.97 2164.13 351.33C2186.88 298.91 2209.59 246.477 2232.25 194.03C2232.83 192.297 2233.67 190.664 2234.75 189.19C2236.52 187.19 2238.81 184.19 2240.75 184.19C2243.07 184.29 2246.08 186.77 2247.36 189.02C2250.34 194.583 2253.01 200.305 2255.36 206.16C2279.29 261.7 2303.08 317.31 2327.22 372.77C2330.51 380.31 2335.12 387.39 2339.91 394.12C2342.47 397.382 2345.86 399.899 2349.72 401.41C2356.77 404.31 2362.72 401.25 2363.88 393.7C2365.37 383.839 2366.16 373.884 2366.24 363.91C2366.59 320.91 2366.59 277.91 2366.67 234.91C2366.67 227.58 2366.52 220.25 2366.31 212.91C2365.99 201.91 2361.38 196.91 2350.31 195.66C2347.17 195.32 2343.93 195.71 2340.85 195.14C2339.21 194.84 2337.85 193.21 2336.3 192.19C2337.79 191.25 2339.3 189.54 2340.78 189.52C2352.26 189.36 2363.78 189.62 2375.24 189.52C2394.89 189.44 2414.55 189.09 2434.24 189.13C2450.11 189.13 2465.82 190.34 2480.52 197.37C2499 206.2 2509.79 226.52 2507.85 246.97C2504.41 283.19 2475.85 307.37 2442.34 310.55C2436.21 311.049 2430.06 311.122 2423.92 310.77C2422.41 310.71 2420.92 308.77 2419.49 307.7C2420.96 306.59 2422.27 304.9 2423.91 304.47C2430.77 302.68 2438.42 302.62 2444.5 299.47C2461.7 290.54 2469.6 275.3 2469.68 256.13C2469.76 239.04 2464.59 224.05 2450.89 212.84C2439.08 203.17 2425.49 200.99 2410.89 203.7C2409.26 204.01 2407.76 206.54 2406.79 208.35C2406.16 209.53 2406.6 211.29 2406.6 212.79C2406.6 260.96 2406.52 309.12 2406.66 357.29C2406.66 367.43 2407.28 377.59 2408.03 387.71C2408.79 398.05 2412.93 401.85 2423.16 402.55C2426.99 402.672 2430.81 403.006 2434.6 403.55C2436.33 403.86 2437.84 405.46 2439.45 406.48C2437.8 407.48 2436.15 409.35 2434.45 409.36C2422.8 409.45 2411.14 409.03 2399.45 409C2387.76 408.97 2376.16 409.36 2364.51 409.29C2340.36 409.15 2316.21 408.84 2292.07 408.53C2290.5 408.53 2288.94 407.83 2286.16 407.17C2288.02 405.45 2288.93 403.98 2290.16 403.57C2294.16 402.27 2294.97 399.57 2293.62 396.16C2286.1 376.98 2278.53 357.83 2270.73 338.76C2270.19 337.43 2267.73 336.13 2266.09 336.11C2243.42 335.944 2220.76 335.944 2198.09 336.11C2197.28 336.193 2196.49 336.463 2195.8 336.898C2195.1 337.333 2194.52 337.923 2194.09 338.62C2187.88 353.494 2181.83 368.427 2175.95 383.42C2174.8 386.717 2174.07 390.143 2173.77 393.62C2173.12 398.97 2175.29 401.82 2180.61 402.71C2183.71 403.23 2186.95 402.93 2190.02 403.55C2191.53 403.86 2192.79 405.41 2194.16 406.4C2192.8 407.4 2191.43 409.4 2190.08 409.4C2180.08 409.4 2170.08 408.66 2160.08 408.68C2145.08 408.68 2130.08 408.68 2115.18 409.59C2101.77 410.45 2088.47 413.45 2075.06 414.06C2040.98 415.62 2007.38 412.72 1976.16 397.49C1929.03 374.49 1904.95 336.08 1902.67 284.01C1900.96 245.01 1912.75 210.81 1941.14 183.29C1963.01 162.09 1989.9 151.42 2019.75 147.64C2056.02 143.06 2091.83 146.72 2127.43 153.97C2139.84 156.49 2139.65 156.29 2138.95 168.97C2138.12 183.97 2137.74 198.91 2137.15 213.88C2137.08 215.54 2137.31 217.4 2136.63 218.8C2135.87 220.36 2134.24 221.5 2132.98 222.8C2131.91 221.4 2129.98 220.05 2129.88 218.62C2128.75 190.12 2111.96 175.15 2086.26 168.04C2062.06 161.34 2037.55 160.04 2013.26 166.92C1986.07 174.61 1968.07 193.08 1959.26 219.32C1946.81 256.38 1946.72 293.7 1963.26 329.8C1981.45 369.6 2024.14 399.04 2072.67 393.91C2081.4 392.99 2090.3 392.07 2098.67 389.61C2117.42 384.11 2127.98 370.46 2133 352.08C2133.31 350.96 2133.29 349.61 2133.93 348.76C2134.83 347.59 2136.65 345.76 2137.3 346.06C2138.65 346.64 2140.38 348.41 2140.37 349.68C2140.34 354.501 2139.93 359.312 2139.16 364.07C2137.1 376.53 2134.76 388.93 2132.46 401.84ZM2232.63 241.5L2201.52 319.36H2262.92L2232.63 241.5Z" fill="white"/>
<path d="M959.16 241.49C957.16 256.31 955.183 271.13 953.23 285.95C949.37 314.983 945.537 344.017 941.73 373.05C941.01 378.65 940.62 384.32 940.41 389.97C940.18 396.08 943.76 400.17 950.63 401.51C955.51 402.45 960.53 402.68 965.43 403.51C967.06 403.8 968.5 405.1 970.03 405.94C968.45 407.11 966.92 409.22 965.27 409.31C958.97 409.67 952.62 409.31 946.27 409.31C928.97 409.31 911.667 409.363 894.36 409.47C893.2 409.47 891.86 409.83 890.9 409.38C889.186 408.446 887.547 407.38 886 406.19C887.59 405.26 889.07 403.95 890.79 403.48C893.059 402.958 895.382 402.706 897.71 402.73C905.36 402.51 909.64 397.92 911.71 391.29C913.508 385.586 914.865 379.752 915.77 373.84C922.97 327.32 930.083 280.78 937.11 234.22C941.11 207.9 945.06 181.57 949.39 155.31C949.96 151.91 952.08 146.96 954.63 146.09C959.09 144.57 961.22 149.66 962.94 153.09C974.11 175.39 985.1 197.77 996.11 220.15C1010.36 249.11 1024.59 278.08 1038.8 307.06C1044.51 318.7 1050.16 330.38 1055.86 342.06C1056.42 343.2 1057.13 344.25 1058.21 346.06C1062.12 338.06 1065.72 330.87 1069.21 323.59C1087.67 285.41 1106.11 247.217 1124.54 209.01C1133.06 191.357 1141.56 173.69 1150.04 156.01C1150.4 155.26 1150.73 154.49 1151.16 153.78C1153.16 150.45 1154.31 145.3 1159.04 145.78C1164.18 146.34 1164.26 151.78 1164.85 155.69C1171.34 198.69 1177.61 241.61 1184.05 284.57C1188.78 316.16 1193.21 347.81 1198.66 379.29C1201.85 397.68 1211.66 404.38 1230.51 403.46C1233.17 403.32 1235.83 403.05 1238.51 402.75C1248.38 401.62 1251.32 398.95 1252.01 388.92C1252.86 376.63 1253.5 364.31 1253.56 352.01C1253.74 310.68 1253.65 269.35 1253.61 228.01C1253.61 222.52 1253.4 217.01 1253.11 211.54C1252.54 200.9 1247.97 196.3 1237.32 195.42C1235.32 195.26 1233.22 195.58 1231.37 195.02C1229.88 194.56 1228.69 193.12 1227.37 192.11C1228.67 191.19 1229.95 189.52 1231.29 189.47C1238.29 189.21 1245.29 189.38 1252.24 189.36C1272.06 189.28 1291.88 189.08 1311.7 189.18C1314.47 189.18 1319.25 187.66 1319.48 192.05C1319.69 196.2 1315.16 195.05 1312.4 195.21C1299.07 195.96 1295.02 199.62 1294.92 212.92C1294.54 262.92 1294.32 312.92 1294.27 362.92C1294.3 371.906 1294.84 380.883 1295.87 389.81C1296.81 398.28 1300.73 401.61 1309.28 402.43C1313.58 402.85 1317.96 402.78 1322.2 403.5C1324.05 403.81 1325.65 405.5 1327.37 406.62C1325.49 407.62 1323.62 409.33 1321.74 409.33C1309.74 409.33 1297.74 408.67 1285.74 408.79C1268.28 408.96 1250.82 409.79 1233.35 410.01C1219.21 410.17 1205.05 409.85 1190.91 409.57C1181.09 409.37 1171.28 408.92 1161.46 408.49C1159.3 408.43 1157.16 408.094 1155.08 407.49C1153.64 407.03 1152.45 405.78 1151.15 404.89C1152.19 403.737 1153.12 402.496 1153.94 401.18C1155.15 398.84 1157.14 396.29 1156.94 393.97C1156.2 384.2 1154.94 374.46 1153.58 364.74C1149.45 334.4 1145.27 304.067 1141.04 273.74C1139.38 261.74 1137.71 249.74 1135.88 236.58C1135 237.623 1134.2 238.726 1133.48 239.88C1111.87 283.94 1090.28 328.013 1068.7 372.1C1064.09 381.507 1059.47 390.91 1054.83 400.31C1054.09 401.8 1053.34 403.31 1052.48 404.71C1048.96 410.46 1046.23 410.71 1042.7 405.03C1039.71 400.231 1036.96 395.285 1034.46 390.21C1010.13 341.383 985.84 292.53 961.58 243.65C961.16 242.81 960.58 242.04 960.14 241.23L959.16 241.49Z" fill="white"/>
<path d="M152.18 641.97V625.68H321.92V16.6801H152.33V0H547.74V16.45H377.95V625.37H547.75V641.97H152.18ZM339.53 16.7V625.19H360.31V16.7H339.53Z" fill="white"/>
<path d="M632.76 532.94C624.63 535.28 619.19 532.94 615.01 525.88C612.46 521.57 608.24 518.26 605.18 514.95C597.8 520.36 591.4 526 584.18 530.17C567.24 539.9 548.79 539.64 530.29 536.17C497.23 530 474.81 509.76 458.98 481.17C444.98 455.94 437.81 428.53 433.27 400.31C427.99 367.47 426.7 334.37 427.46 301.21C428.37 261.49 432.21 222.12 445.16 184.21C451.33 166.15 459.22 148.97 472.38 134.74C491.88 113.66 516.79 105.36 544.73 103.74C566.58 102.46 583.95 110.65 598.38 128.21C602.6 123.73 607.52 119.99 610.38 115.05C613.59 109.52 617.67 108.55 623.1 109.15C624.25 109.28 625.41 109.33 626.91 109.44V212.01C623.48 212.01 619.91 212.46 616.68 211.8C615.29 211.52 613.93 209.04 613.32 207.3C607.26 189.89 602.19 172.08 595.1 155.11C590.646 144.555 584.592 134.75 577.15 126.04C560.03 106.04 533.54 111.48 519.62 128.12C507.47 142.63 503.05 159.83 503.02 178.24C502.887 274.06 502.887 369.88 503.02 465.7C503.02 482.76 507.22 498.7 518.41 512.13C537.77 535.29 570.68 534.46 589.15 510.52C597.94 499.13 603.15 485.98 607.05 472.36C612.29 453.83 616.69 435.06 621.59 415.85H632.81L632.76 532.94Z" fill="white"/>
<path d="M1556.19 205.56C1555.9 208.8 1555.6 210.56 1555.6 212.41C1555.56 233.91 1555.56 255.407 1555.6 276.9C1555.6 283.8 1555.67 283.9 1562.49 283.78C1578.98 283.51 1595.49 283.22 1611.94 282.78C1617.54 282.62 1622.71 280.99 1626.83 276.78C1627.69 275.9 1629.83 275.09 1630.53 275.54C1631.46 276.13 1632.08 278.06 1631.97 279.34C1630.77 293.43 1629.49 307.51 1627.97 321.57C1627.83 322.91 1625.97 324.07 1624.85 325.31C1623.95 323.99 1622.67 322.77 1622.23 321.31C1621.68 319.43 1621.9 317.31 1621.62 315.37C1620.48 307.25 1616.46 302.65 1608.2 301.74C1598.79 300.74 1589.28 300.5 1579.81 300.1C1573.32 299.83 1566.81 299.96 1560.33 299.68C1557.22 299.55 1555.6 300.52 1555.63 303.78C1555.81 327.27 1555.63 350.78 1556.29 374.24C1556.55 384.11 1562.37 389.6 1573.21 391.58C1588.15 394.275 1603.46 394.275 1618.4 391.58C1629.7 389.58 1634.85 381.99 1637.13 371.51C1637.75 368.69 1636.81 363.7 1640.97 364.05C1645.28 364.41 1644.1 369.3 1643.82 372.28C1642.91 381.88 1641.82 391.48 1640.23 400.98C1638.87 408.92 1636.81 410.38 1628.74 410.41C1615.74 410.41 1602.74 410.2 1589.74 410.1C1561.74 409.89 1533.82 409.77 1505.87 409.42C1500.35 409.36 1494.87 408.13 1489.33 408.04C1486.66 408.04 1483.99 409.85 1481.27 409.97C1472.63 410.35 1463.96 410.47 1455.27 410.43C1417.49 410.21 1379.71 409.923 1341.92 409.57C1339.08 409.57 1334.52 411.16 1334.26 406.57C1334 401.98 1338.78 404.22 1341.26 403.36C1342.79 402.83 1344.56 403 1346.21 402.8C1352.75 402.02 1356.1 399.54 1356.95 393.03C1358.29 383.481 1359.05 373.861 1359.23 364.22C1359.57 322.07 1359.58 279.91 1359.63 237.76C1359.63 229.6 1359.4 221.44 1359.13 213.28C1358.75 201.93 1353.9 196.89 1342.38 195.69C1339.74 195.42 1337.01 195.6 1334.46 194.99C1333.22 194.69 1332.3 193.07 1331.24 191.99C1332.34 191.19 1333.38 189.85 1334.56 189.69C1337.37 189.472 1340.19 189.418 1343.01 189.53C1368.82 189.43 1394.64 189.34 1420.45 189.26C1422.45 189.181 1424.45 189.355 1426.4 189.78C1427.4 190.05 1428.89 191.29 1428.92 192.14C1428.79 192.728 1428.51 193.274 1428.11 193.725C1427.72 194.176 1427.21 194.519 1426.64 194.72C1423.87 195.218 1421.06 195.505 1418.24 195.58C1405.09 196.35 1401.7 199.36 1400.95 212.3C1400.32 223.09 1400.12 233.93 1400.1 244.75C1400.05 282.084 1400.11 319.417 1400.29 356.75C1400.38 362.906 1400.92 369.046 1401.93 375.12C1403.54 385.31 1407.54 389.66 1417.86 390.51C1431.42 391.62 1445.08 391.63 1458.69 392.08C1460.19 392.06 1461.69 391.959 1463.18 391.78C1477.81 390.62 1486.33 382.95 1489.01 368.5C1489.22 367.36 1489.01 365.98 1489.6 365.1C1490.34 363.929 1491.46 363.055 1492.78 362.63C1493.39 362.5 1494.9 364.16 1495.11 365.18C1495.53 367.3 1495.62 369.472 1495.38 371.62C1494.25 382.18 1492.98 392.72 1491.71 403.71C1495.71 403.32 1500.04 403.21 1504.24 402.41C1510.32 401.26 1512.46 396.41 1513 391.03C1513.93 381.77 1514.87 372.46 1514.91 363.16C1515.1 315 1515 266.85 1514.98 218.69C1514.98 216.69 1514.82 214.69 1514.65 212.69C1513.65 201 1509.12 196.53 1497.38 195.69C1494.24 195.46 1491.02 195.69 1487.95 195.08C1486.77 194.86 1485.89 193.08 1484.88 191.95C1485.99 191.18 1487.1 189.76 1488.21 189.75C1500.36 189.63 1512.51 189.75 1524.66 189.75C1555.81 189.81 1586.96 189.94 1618.11 189.75C1622.86 189.75 1627.67 188.52 1632.33 187.37C1635.81 186.5 1637.05 187.37 1636.67 190.87C1635.41 202.45 1634.22 214.03 1632.97 225.6C1632.96 226.935 1632.65 228.25 1632.07 229.45C1631.27 230.68 1629.86 231.51 1628.71 232.51C1627.91 231.388 1627.24 230.176 1626.71 228.9C1626.4 227.27 1626.21 225.619 1626.13 223.96C1625.06 215.56 1620.39 209.58 1612.01 208.86C1593.69 207.22 1575.25 206.6 1556.19 205.56Z" fill="white"/>
<path d="M1657.06 375.9C1657.45 369.25 1657.82 362.61 1658.24 355.96C1658.17 354.963 1658.36 353.965 1658.81 353.07C1659.92 351.836 1661.14 350.698 1662.44 349.67C1663.35 351.02 1664.75 352.26 1665.09 353.74C1666.09 358.25 1666.5 362.93 1667.61 367.42C1670.99 381.03 1680.04 389.56 1692.89 394.13C1705.74 398.7 1718.89 399.74 1732.09 395.56C1760.67 386.56 1765.16 351.17 1746.7 334.82C1737.09 326.32 1725.79 319.6 1714.83 312.82C1701.66 304.62 1688.49 296.59 1678.07 284.82C1660.26 264.7 1657.76 234.06 1672.81 213.74C1684.81 197.58 1701.81 189.81 1721.19 186.74C1741.36 183.5 1761.35 185.5 1781.19 189.74C1784.85 190.51 1786.34 192.44 1786.19 196.38C1785.64 207.85 1785.47 219.38 1785.09 230.83C1785.13 232.324 1784.85 233.809 1784.25 235.18C1783.65 236.32 1781.91 237.97 1781.25 237.74C1780 237.28 1778.34 235.74 1778.31 234.55C1777.69 212.76 1758.18 198.41 1732.91 200.25C1724.16 200.89 1715.91 203.07 1708.49 208.11C1693.54 218.34 1691.17 238.2 1703.31 251.69C1711.37 260.69 1721.81 266.24 1732.15 271.95C1747.15 280.25 1762.01 288.74 1773.9 301.5C1791.83 320.73 1796.6 343.39 1788.55 367.71C1780.55 391.85 1762.42 406.47 1737.55 411.09C1713.05 415.63 1688.48 414.95 1664.55 406.74C1657.17 404.21 1656.19 402.18 1656.35 394.49C1656.48 388.34 1656.35 382.19 1656.35 376.04L1657.06 375.9Z" fill="white"/>
<path d="M1164.99 473.17C1168.32 473.17 1171.34 472.8 1174.18 473.34C1175.47 473.58 1176.93 475.45 1177.42 476.89C1180.56 486.12 1183.42 495.43 1187.42 504.89C1188.75 500.89 1190.11 496.89 1191.48 492.89C1193.06 488.17 1194.9 483.51 1196.12 478.69C1197.19 474.44 1199.24 472.91 1203.75 473.01C1207.75 473.1 1209.14 474.66 1210.18 478.15C1212.84 487.31 1216.07 496.291 1219.87 505.04C1222.5 497.1 1225.14 489.153 1227.77 481.2C1230.68 472.48 1230.69 472.48 1240.97 473.63C1239.04 479.63 1237.14 485.52 1235.23 491.4C1232.41 500.09 1229.38 508.73 1226.82 517.49C1225.23 522.94 1221.06 520.55 1217.82 521.06C1214.82 521.54 1213.02 520.51 1212.07 517.24C1209.5 508.15 1206.35 499.235 1202.63 490.55C1200.83 495.93 1199.03 501.307 1197.22 506.68C1196.03 509.787 1195.01 512.955 1194.15 516.17C1193.26 520.23 1190.94 520.95 1187.06 521.17C1181.7 521.53 1179.6 519.57 1178.14 514.55C1174.45 501.97 1170.07 489.55 1165.99 477.11C1165.63 476.07 1165.41 474.95 1164.99 473.17Z" fill="white"/>
<path d="M2838.41 473.7C2844.13 471.97 2847.79 473.48 2850.63 478.9C2854.78 486.81 2859.8 494.27 2864.87 502.61C2869.74 494.4 2874.66 486.91 2878.71 478.99C2881.5 473.55 2885.18 471.99 2891.14 473.67V520.59H2881.36V494.65L2880.2 494.32C2876.51 500.47 2872.86 506.65 2869.12 512.78C2866.27 517.46 2863.19 517.5 2860.2 512.78C2856.49 506.97 2852.95 501.05 2848.26 495.45V520.74H2838.41V473.7Z" fill="white"/>
<path d="M1440.13 521.69C1424.9 521.69 1414.05 511.27 1414.13 496.81C1414.25 482.66 1425.13 472.49 1440.2 472.47C1455.95 472.47 1466.59 482.53 1466.53 497.39C1466.51 511.84 1455.75 521.71 1440.13 521.69ZM1455.13 497.11C1455.13 488.44 1449 482.11 1440.62 482.04C1438.62 481.981 1436.63 482.333 1434.78 483.075C1432.92 483.817 1431.24 484.933 1429.83 486.353C1428.43 487.773 1427.33 489.467 1426.61 491.329C1425.88 493.192 1425.55 495.184 1425.63 497.18C1425.69 505.65 1432.05 512.27 1440.26 512.4C1448.76 512.53 1455.16 505.98 1455.17 497.11H1455.13Z" fill="white"/>
<path d="M1097.69 521.7C1082.59 521.7 1072.02 511.53 1072.01 497.1C1072.01 482.5 1082.71 472.44 1098.23 472.47C1113.53 472.47 1124.34 482.85 1124.23 497.37C1124.12 511.89 1113.23 521.75 1097.69 521.7ZM1083.13 497.02C1083.13 505.72 1089.59 512.39 1098.13 512.42C1106.67 512.45 1113.13 505.68 1113.04 497.02C1112.95 488.36 1106.74 482.12 1098.36 482.02C1096.36 481.934 1094.36 482.261 1092.49 482.982C1090.61 483.702 1088.91 484.8 1087.48 486.207C1086.05 487.614 1084.93 489.301 1084.18 491.161C1083.43 493.021 1083.07 495.015 1083.13 497.02Z" fill="white"/>
<path d="M1636.63 506.05L1646.22 520.24C1636.76 522.31 1635.01 522 1630.58 514.79C1627.16 509.25 1623.33 505.93 1615.87 508.34C1615.69 512 1615.5 516.05 1615.28 520.56H1604.28V511.26C1604.28 500.12 1604.43 488.97 1604.19 477.83C1604.11 474.03 1605.37 472.91 1609.03 473.07C1615.17 473.34 1621.35 472.9 1627.48 473.29C1637.19 473.9 1643.13 478.12 1645.17 485.2C1647.63 493.4 1645.21 499.46 1636.63 506.05ZM1615.84 498.62H1621.03C1623.03 498.698 1625.03 498.675 1627.03 498.55C1631.85 498.05 1634.73 494.9 1634.67 490.41C1634.61 485.92 1632.09 483.08 1627.31 482.65C1623.6 482.32 1619.83 482.58 1615.88 482.58L1615.84 498.62Z" fill="white"/>
<path d="M2628.29 508.25V520.62H2617.45V472.75C2626.96 473.21 2636.39 473.13 2645.65 474.31C2652.43 475.17 2656.88 479.89 2658.19 486.83C2659.76 495.08 2657 501.53 2649.19 505.83C2652.46 510.61 2655.59 515.21 2658.76 519.83C2651.76 522.54 2647.76 521.44 2643.94 515.83C2643.4 515.194 2642.94 514.5 2642.55 513.76C2639.9 507.57 2634.97 506.74 2628.29 508.25ZM2628.44 498.4C2632.86 498.4 2636.85 498.76 2640.73 498.29C2644.78 497.8 2647.07 495.17 2647.19 490.82C2647.3 486.25 2645.01 483.38 2640.77 482.82C2636.77 482.26 2632.68 482.7 2628.44 482.7V498.4Z" fill="white"/>
<path d="M1028.74 520.21C1019.34 522.45 1017.68 521.81 1012.45 514.21C1007.45 507.01 1007.45 507.01 998.22 508.21V520.7H987.1V472.7C996.86 473.25 1006.62 473.19 1016.18 474.58C1022.66 475.52 1026.99 480.34 1028.04 487.16C1029.13 494.27 1027.35 500.37 1020.97 504.53C1020.3 505.018 1019.66 505.545 1019.06 506.11C1022.33 510.84 1025.49 515.48 1028.74 520.21ZM998.27 498.44C1002.59 498.44 1006.57 498.82 1010.44 498.34C1014.79 497.8 1017.03 494.76 1016.97 490.34C1016.91 486.17 1014.73 483.25 1010.58 482.78C1006.58 482.32 1002.49 482.68 998.27 482.68V498.44Z" fill="white"/>
<path d="M939.63 480.84L932.54 487.21C927.54 482.68 922.04 481.07 915.74 482.55C910 483.9 906.39 487.49 905.16 493.2C903.81 499.49 904.99 505.2 910.42 509.2C915.35 512.88 920.87 513.27 926.42 510.96C927.36 510.57 928.09 508.66 928.17 507.4C928.41 503.97 928.26 500.5 928.26 496.77H938.8C938.8 502.67 939.02 508.6 938.63 514.49C938.54 515.8 936.53 517.41 935.04 518.14C927.587 522.018 918.933 522.902 910.85 520.61C905.412 519.162 900.659 515.842 897.428 511.234C894.198 506.626 892.697 501.026 893.19 495.42C894.19 483.34 902.72 474.06 914.56 472.73C923.8 471.7 932.56 472.7 939.63 480.84Z" fill="white"/>
<path d="M1930.11 508.58V520.68H1919.29V473.84C1928.6 473.84 1937.76 473.02 1946.7 474.07C1955.64 475.12 1960.21 481.75 1960.24 490.45C1960.24 499.37 1955.92 505.05 1946.79 506.9C1941.49 507.98 1935.98 508.03 1930.11 508.58ZM1930.48 482.58V498.46C1934.48 498.46 1938.21 498.75 1941.83 498.39C1943.86 498.259 1945.75 497.34 1947.11 495.831C1948.47 494.321 1949.19 492.34 1949.11 490.31C1948.93 485.8 1946.29 483.14 1942 482.67C1938.25 482.3 1934.43 482.62 1930.48 482.62V482.58Z" fill="white"/>
<path d="M2566.17 501.03H2544.89V511.96H2570.13V520.61H2533.63V473.49H2569.22C2569.32 475.2 2569.38 476.94 2569.53 478.68C2569.78 481.47 2568.61 482.49 2565.78 482.42C2558.97 482.27 2552.16 482.42 2544.95 482.42V492.42H2566.13L2566.17 501.03Z" fill="white"/>
<path d="M3080.45 520.62V473.48H3115.97V482.25H3091.53V492.25H3113.19V500.87H3091.46V511.98H3116.86V520.58L3080.45 520.62Z" fill="white"/>
<path d="M2363.01 473.46H2398.51V482.2H2374.31V492.33H2395.54V500.77H2374.23V512H2399.23V520.68H2363.04L2363.01 473.46Z" fill="white"/>
<path d="M2137.76 521.02C2144.76 505.31 2151.25 490.59 2158.03 476.02C2158.69 474.61 2161.27 473.3 2162.94 473.32C2165.76 473.32 2169.39 471.4 2171.25 475.61C2177.82 490.45 2184.46 505.27 2191.48 520.99C2187.75 520.99 2184.48 521.58 2181.68 520.76C2180 520.28 2178.34 517.76 2177.76 515.84C2176.48 511.59 2174.1 510.02 2169.76 510.64C2167.28 511.01 2164.76 511.01 2162.28 510.64C2155.98 509.64 2151.85 511.42 2150.4 518.18C2150.14 519.35 2147.99 520.66 2146.54 520.91C2143.97 521.34 2141.27 521.02 2137.76 521.02ZM2164.51 484.46L2157.51 501.59H2171.63L2164.51 484.46Z" fill="white"/>
<path d="M1512.48 473.41H1523.57C1523.57 478.1 1523.52 482.53 1523.57 486.96C1523.64 492.45 1523.44 497.96 1524.04 503.41C1524.67 509.28 1528.6 512.41 1534.1 512.41C1539.6 512.41 1543.6 509.26 1544.17 503.41C1544.77 497.13 1544.55 490.78 1544.65 484.46C1544.65 480.98 1544.65 477.46 1544.65 473.58H1555.54C1555.54 479.32 1555.54 485.08 1555.54 490.83C1555.54 495.49 1555.72 500.18 1555.23 504.83C1554.17 514.83 1546.92 521.5 1536.85 521.61C1532.59 521.61 1528.05 521.51 1524.11 520.12C1516.61 517.46 1512.9 511.19 1512.56 503.5C1512.15 493.7 1512.48 483.89 1512.48 473.41Z" fill="white"/>
<path d="M1876.16 521.01C1872.41 521.01 1869.35 521.71 1866.89 520.8C1864.89 520.05 1862.89 517.61 1862.17 515.48C1860.84 511.75 1858.97 510.07 1854.91 510.63C1852.26 511.007 1849.56 511.007 1846.91 510.63C1840.62 509.63 1836.4 511.36 1834.91 518.19C1834.67 519.35 1832.49 520.64 1831.03 520.9C1828.52 521.34 1825.87 521.02 1822.36 521.02L1835.61 491.02C1837.84 486.02 1839.91 480.91 1842.45 476.02C1842.92 475.254 1843.55 474.605 1844.31 474.123C1845.06 473.641 1845.92 473.339 1846.81 473.24C1849.81 473.36 1853.81 471.16 1855.71 475.38C1862.48 490.28 1869.07 505.15 1876.16 521.01ZM1856.39 501.84C1853.95 495.96 1851.81 490.84 1849.19 484.56L1841.95 501.84H1856.39Z" fill="white"/>
<path d="M1777.63 506.84L1784.23 513C1775.93 523.67 1757.23 524.84 1746.89 515.56C1736.55 506.28 1735.89 489.56 1745.59 479.86C1756.07 469.39 1774.29 469.73 1784.29 480.92L1777.7 487.21C1768.03 480.42 1759.58 480.36 1753.8 486.9C1748.7 492.65 1748.92 502.43 1754.26 507.9C1760.12 513.93 1768.63 513.66 1777.63 506.84Z" fill="white"/>
<path d="M2440.46 473.16C2443.26 473.16 2446.27 472.81 2449.13 473.31C2449.92 473.562 2450.66 473.977 2451.28 474.528C2451.91 475.079 2452.41 475.754 2452.76 476.51C2457.1 486.19 2461.21 495.98 2465.76 506.68C2467.09 503.68 2468.13 501.44 2469.14 499.15C2471.89 492.93 2474.61 486.71 2477.36 480.49C2481.04 472.15 2481.36 471.99 2491.36 473.8C2489.26 478.73 2487.22 483.55 2485.14 488.36C2480.86 498.26 2476.65 508.2 2472.14 517.99C2471.69 518.768 2471.07 519.431 2470.33 519.928C2469.58 520.424 2468.73 520.74 2467.84 520.85C2464.94 520.85 2460.21 520.6 2459.45 518.97C2452.64 504.24 2446.52 489.2 2440.21 474.24C2440.15 474.12 2440.27 473.92 2440.46 473.16Z" fill="white"/>
<path d="M1357.88 520.73H1347.16C1347.16 516.73 1347.51 512.81 1347.06 508.94C1346.76 505.713 1345.86 502.571 1344.39 499.68C1339.91 491.56 1334.96 483.68 1330.2 475.68C1329.88 475.14 1329.63 474.56 1329.32 473.95C1338.43 471.63 1340.21 472.36 1344.69 479.89C1347.24 484.17 1349.85 488.4 1352.47 492.63C1352.61 492.86 1353.02 492.92 1353.66 493.23C1356.38 488.76 1359.14 484.29 1361.84 479.78C1366.36 472.23 1366.53 472.13 1376.58 473.78C1373.08 479.64 1370.04 485.49 1366.3 490.85C1360.53 499.11 1356.5 507.69 1358.2 518.1C1358.2 518.987 1358.1 519.87 1357.88 520.73Z" fill="white"/>
<path d="M2722.79 493.43C2725.62 488.74 2728.43 484.05 2731.27 479.37C2735.56 472.31 2736.48 471.94 2745.63 473.96C2742.94 478.5 2740.37 482.87 2737.78 487.23C2736.69 489.303 2735.48 491.307 2734.14 493.23C2728.81 500.1 2726.33 507.71 2727.53 516.43C2727.57 517.852 2727.48 519.276 2727.25 520.68H2716.73C2716.48 519.656 2716.36 518.604 2716.37 517.55C2717.85 507.55 2714.37 499.11 2708.71 491.09C2704.93 485.7 2701.85 479.82 2698.38 474.09C2707.77 471.78 2709.38 472.41 2713.71 479.74C2716.35 484.15 2719.08 488.52 2721.79 492.9C2721.95 493.06 2722.34 493.16 2722.79 493.43Z" fill="white"/>
<path d="M2076.27 482.38H2061.39V473.13H2095.71C2103.84 473.13 2103.84 473.13 2102.29 482.28H2087.69V520.57H2076.27V482.38Z" fill="white"/>
<path d="M2234.63 520.63V473.63H2245.5V511.7H2268.85V520.7L2234.63 520.63Z" fill="white"/>
<path d="M3036.02 511.64V520.64H3001.43V473.42H3012.1V511.63L3036.02 511.64Z" fill="white"/>
<path d="M2941 520.58V473.5H2951.77V520.58H2941Z" fill="white"/>
<path d="M2016.8 520.84H2006.57V473.43H2016.8V520.84Z" fill="white"/>
</g>
<defs>
<clipPath id="clip0_29_335">
<rect width="3124.76" height="641.97" fill="white"/>
</clipPath>
</defs>
</svg>
